<svg width="24" height="25" viewBox="0 0 24 25" fill="none" xmlns="http://www.w3.org/2000/svg">
<g clip-path="url(#clip0)">
<path fill-rule="evenodd" clip-rule="evenodd" d="M0.584985 0.818771C0.959663 0.440041 1.46777 0.227283 1.99756 0.227283C2.52736 0.227283 3.03546 0.440041 3.41014 0.818771L11.9875 9.4915L20.5649 0.818771C20.7492 0.625821 20.9697 0.471917 21.2134 0.36604C21.4572 0.260163 21.7194 0.204434 21.9846 0.202103C22.2499 0.199772 22.513 0.250886 22.7586 0.352463C23.0041 0.454041 23.2272 0.604047 23.4148 0.79373C23.6024 0.983412 23.7508 1.20897 23.8512 1.45725C23.9517 1.70552 24.0022 1.97154 23.9999 2.23978C23.9976 2.50802 23.9425 2.77311 23.8378 3.01959C23.7331 3.26606 23.5809 3.48898 23.39 3.67534L14.8127 12.3481L23.39 21.0208C23.754 21.4018 23.9554 21.9121 23.9508 22.4418C23.9463 22.9715 23.7361 23.4782 23.3657 23.8528C22.9953 24.2273 22.4941 24.4398 21.9703 24.4444C21.4464 24.449 20.9417 24.2454 20.5649 23.8774L11.9875 15.2046L3.41014 23.8774C3.03332 24.2454 2.52862 24.449 2.00475 24.4444C1.48089 24.4398 0.979766 24.2273 0.609323 23.8528C0.238879 23.4782 0.0287522 22.9715 0.0241999 22.4418C0.0196477 21.9121 0.221035 21.4018 0.584985 21.0208L9.16235 12.3481L0.584985 3.67534C0.210419 3.29649 0 2.78274 0 2.24705C0 1.71137 0.210419 1.19761 0.584985 0.818771Z" fill="white"/>
</g>
<defs>
<clipPath id="clip0">
<rect width="24" height="24.2424" fill="white" transform="translate(0 0.202026)"/>
</clipPath>
</defs>
</svg>
