<svg width="22" height="32" viewBox="0 0 22 32" fill="none" xmlns="http://www.w3.org/2000/svg">
<path d="M4.19702 2.34375e-05L2.57802 3.73502H0.171021V7.09402H1.09202L2.03502 13.069H0.56202L2.51002 24.042L3.75902 24.027L5.01502 32H16.906L16.989 31.469L18.161 24.026L19.349 24.041L21.292 13.068H19.885L20.822 7.09302H21.833V3.73402H19.276L17.651 -0.000976562L4.19702 2.34375e-05ZM4.90102 1.07302H16.958L17.983 3.44802H3.86802L4.90102 1.07302ZM1.23502 4.80302H20.76V6.03102H1.23502V4.80302ZM1.83902 14.136H20.022L18.454 22.959L10.918 22.88L3.40702 22.959L1.83902 14.136Z" fill="#FF4040"/>
</svg>
