<svg width="32" height="32" viewBox="0 0 32 32" fill="none" xmlns="http://www.w3.org/2000/svg">
<path d="M18.0615 12.6061H14.4001V16.4849H18.0615C19.1321 16.4849 20.0001 15.616 20.0001 14.5455C20.0001 13.4749 19.1321 12.6061 18.0615 12.6061Z" fill="#FF4040"/>
<path d="M16 0.969727C7.16267 0.969727 0 7.91534 0 16.4849C0 25.0544 7.16267 32 16 32C24.8373 32 32 25.0544 32 16.4849C32 7.91534 24.8373 0.969727 16 0.969727ZM18.032 18.8122H14.4V22.6909H12V10.2788H18.032C20.444 10.2788 22.4 12.1755 22.4 14.5455C22.4 16.8534 20.444 18.7501 18.032 18.8122Z" fill="#FF4040"/>
</svg>
